<mxfile host="app.diagrams.net" modified="2024-05-29T16:30:29.724Z" agent="Mozilla/5.0 (Windows NT 10.0; Win64; x64) AppleWebKit/537.36 (KHTML, like Gecko) Chrome/125.0.0.0 Safari/537.36" etag="30LxNspQz2IGVUZGIAgx" version="24.4.9" type="github">
  <diagram name="Page-1" id="tHs2OID-AjQ1D9ACt-ad">
    <mxGraphModel dx="1341" dy="919" grid="0" gridSize="10" guides="1" tooltips="1" connect="1" arrows="1" fold="1" page="0" pageScale="1" pageWidth="827" pageHeight="1169" math="0" shadow="0">
      <root>
        <mxCell id="0" />
        <mxCell id="1" parent="0" />
        <mxCell id="R_hKbZLRWmPk_zWUSFDA-28" value="&lt;p style=&quot;margin:0px;margin-top:4px;margin-left:10px;text-align:left;&quot;&gt;&lt;b&gt;bdd&lt;/b&gt;&amp;nbsp;Deployment view&lt;/p&gt;" style="html=1;shape=mxgraph.sysml.package;labelX=135.67;align=left;spacingLeft=10;html=1;overflow=fill;whiteSpace=wrap;recursiveResize=0;" parent="1" vertex="1">
          <mxGeometry x="-280" y="-96" width="1020" height="287" as="geometry" />
        </mxCell>
        <mxCell id="R_hKbZLRWmPk_zWUSFDA-2" value="&amp;lt;&amp;lt; &lt;b&gt;server&amp;nbsp;&lt;/b&gt;&amp;gt;&amp;gt;&lt;div&gt;&lt;br&gt;&lt;/div&gt;&lt;div&gt;&lt;b&gt;Patients service server&lt;/b&gt;&lt;/div&gt;" style="shape=rect;html=1;whiteSpace=wrap;align=center;verticalAlign=top;fillColor=#FFFFFF;" parent="1" vertex="1">
          <mxGeometry x="-38" y="108" width="126" height="68" as="geometry" />
        </mxCell>
        <mxCell id="R_hKbZLRWmPk_zWUSFDA-3" value="&amp;lt;&amp;lt; &lt;b&gt;subsystem&amp;nbsp;&lt;/b&gt;&amp;gt;&amp;gt;&lt;div&gt;&lt;br&gt;&lt;/div&gt;&lt;div&gt;&lt;b&gt;Schedule appointment&lt;/b&gt;&lt;/div&gt;" style="shape=rect;html=1;whiteSpace=wrap;align=center;verticalAlign=top;fillColor=#FFFFFF;" parent="1" vertex="1">
          <mxGeometry x="-120" y="-59" width="148" height="60" as="geometry" />
        </mxCell>
        <mxCell id="R_hKbZLRWmPk_zWUSFDA-4" value="&amp;lt;&amp;lt; &lt;b&gt;subsystem&amp;nbsp;&lt;/b&gt;&amp;gt;&amp;gt;&lt;div&gt;&lt;br&gt;&lt;/div&gt;&lt;div&gt;&lt;b&gt;Check-in&lt;/b&gt;&lt;/div&gt;" style="shape=rect;html=1;whiteSpace=wrap;align=center;verticalAlign=top;fillColor=#FFFFFF;" parent="1" vertex="1">
          <mxGeometry x="417" y="-59" width="126" height="60" as="geometry" />
        </mxCell>
        <mxCell id="R_hKbZLRWmPk_zWUSFDA-5" value="&amp;lt;&amp;lt; &lt;b&gt;subsystem&amp;nbsp;&lt;/b&gt;&amp;gt;&amp;gt;&lt;div&gt;&lt;br&gt;&lt;/div&gt;&lt;div&gt;&lt;b&gt;List doctors&lt;/b&gt;&lt;/div&gt;" style="shape=rect;html=1;whiteSpace=wrap;align=center;verticalAlign=top;fillColor=#FFFFFF;" parent="1" vertex="1">
          <mxGeometry x="602" y="-59" width="126" height="60" as="geometry" />
        </mxCell>
        <mxCell id="R_hKbZLRWmPk_zWUSFDA-6" value="&amp;lt;&amp;lt; &lt;b&gt;subsystem&amp;nbsp;&lt;/b&gt;&amp;gt;&amp;gt;&lt;div&gt;&lt;br&gt;&lt;/div&gt;&lt;div&gt;&lt;b&gt;List appointments&lt;/b&gt;&lt;/div&gt;" style="shape=rect;html=1;whiteSpace=wrap;align=center;verticalAlign=top;fillColor=#FFFFFF;" parent="1" vertex="1">
          <mxGeometry x="225" y="-59" width="148" height="60" as="geometry" />
        </mxCell>
        <mxCell id="R_hKbZLRWmPk_zWUSFDA-7" value="&amp;lt;&amp;lt; &lt;b&gt;subsystem&amp;nbsp;&lt;/b&gt;&amp;gt;&amp;gt;&lt;div&gt;&lt;br&gt;&lt;/div&gt;&lt;div&gt;&lt;b&gt;Review doctor&lt;/b&gt;&lt;/div&gt;" style="shape=rect;html=1;whiteSpace=wrap;align=center;verticalAlign=top;fillColor=#FFFFFF;" parent="1" vertex="1">
          <mxGeometry x="61" y="-59" width="126" height="60" as="geometry" />
        </mxCell>
        <mxCell id="R_hKbZLRWmPk_zWUSFDA-8" value="&amp;lt;&amp;lt; &lt;b&gt;subsystem&amp;nbsp;&lt;/b&gt;&amp;gt;&amp;gt;&lt;div&gt;&lt;br&gt;&lt;/div&gt;&lt;div&gt;&lt;b&gt;Register patient&lt;/b&gt;&lt;/div&gt;" style="shape=rect;html=1;whiteSpace=wrap;align=center;verticalAlign=top;fillColor=#FFFFFF;" parent="1" vertex="1">
          <mxGeometry x="-272" y="-59" width="126" height="60" as="geometry" />
        </mxCell>
        <mxCell id="R_hKbZLRWmPk_zWUSFDA-10" value="&amp;lt;&amp;lt; &lt;b&gt;server&amp;nbsp;&lt;/b&gt;&amp;gt;&amp;gt;&lt;div&gt;&lt;br&gt;&lt;/div&gt;&lt;div&gt;&lt;b&gt;Doctors service server&lt;/b&gt;&lt;/div&gt;" style="shape=rect;html=1;whiteSpace=wrap;align=center;verticalAlign=top;fillColor=#FFFFFF;" parent="1" vertex="1">
          <mxGeometry x="602" y="107.5" width="126" height="69" as="geometry" />
        </mxCell>
        <mxCell id="R_hKbZLRWmPk_zWUSFDA-19" value="&lt;font style=&quot;font-size: 12px;&quot;&gt;&lt;b&gt;&amp;lt;&amp;lt; Allocate &amp;gt;&amp;gt;&lt;/b&gt;&lt;/font&gt;" style="edgeStyle=none;html=1;endArrow=open;endSize=12;dashed=1;verticalAlign=bottom;rounded=0;strokeWidth=2;" parent="1" source="R_hKbZLRWmPk_zWUSFDA-8" target="R_hKbZLRWmPk_zWUSFDA-2" edge="1">
          <mxGeometry x="-0.182" y="-15" width="160" relative="1" as="geometry">
            <mxPoint x="-494" y="58" as="sourcePoint" />
            <mxPoint x="-334" y="58" as="targetPoint" />
            <mxPoint as="offset" />
          </mxGeometry>
        </mxCell>
        <mxCell id="R_hKbZLRWmPk_zWUSFDA-20" value="&lt;font style=&quot;font-size: 12px;&quot;&gt;&lt;b&gt;&amp;lt;&amp;lt; Allocate &amp;gt;&amp;gt;&lt;/b&gt;&lt;/font&gt;" style="edgeStyle=none;html=1;endArrow=open;endSize=12;dashed=1;verticalAlign=bottom;rounded=0;strokeWidth=2;" parent="1" source="R_hKbZLRWmPk_zWUSFDA-3" target="R_hKbZLRWmPk_zWUSFDA-2" edge="1">
          <mxGeometry x="0.0673" y="-2" width="160" relative="1" as="geometry">
            <mxPoint x="-66" y="67" as="sourcePoint" />
            <mxPoint x="-66" y="137" as="targetPoint" />
            <mxPoint as="offset" />
          </mxGeometry>
        </mxCell>
        <mxCell id="R_hKbZLRWmPk_zWUSFDA-22" value="&lt;font style=&quot;font-size: 12px;&quot;&gt;&lt;b&gt;&amp;lt;&amp;lt; Allocate &amp;gt;&amp;gt;&lt;/b&gt;&lt;/font&gt;" style="edgeStyle=none;html=1;endArrow=open;endSize=12;dashed=1;verticalAlign=bottom;rounded=0;strokeWidth=2;" parent="1" source="R_hKbZLRWmPk_zWUSFDA-6" target="R_hKbZLRWmPk_zWUSFDA-2" edge="1">
          <mxGeometry x="-0.1048" y="7" width="160" relative="1" as="geometry">
            <mxPoint x="150.69" y="82" as="sourcePoint" />
            <mxPoint x="62" y="115" as="targetPoint" />
            <mxPoint as="offset" />
          </mxGeometry>
        </mxCell>
        <mxCell id="R_hKbZLRWmPk_zWUSFDA-24" value="&lt;font style=&quot;font-size: 12px;&quot;&gt;&lt;b&gt;&amp;lt;&amp;lt; Allocate &amp;gt;&amp;gt;&lt;/b&gt;&lt;/font&gt;" style="edgeStyle=none;html=1;endArrow=open;endSize=12;dashed=1;verticalAlign=bottom;rounded=0;strokeWidth=2;" parent="1" source="R_hKbZLRWmPk_zWUSFDA-7" target="R_hKbZLRWmPk_zWUSFDA-2" edge="1">
          <mxGeometry x="-0.0061" y="4" width="160" relative="1" as="geometry">
            <mxPoint x="454" y="129" as="sourcePoint" />
            <mxPoint x="408" y="199" as="targetPoint" />
            <mxPoint as="offset" />
          </mxGeometry>
        </mxCell>
        <mxCell id="R_hKbZLRWmPk_zWUSFDA-25" value="&lt;font style=&quot;font-size: 12px;&quot;&gt;&lt;b&gt;&amp;lt;&amp;lt; Allocate &amp;gt;&amp;gt;&lt;/b&gt;&lt;/font&gt;" style="edgeStyle=none;html=1;endArrow=open;endSize=12;dashed=1;verticalAlign=bottom;rounded=0;strokeWidth=2;" parent="1" source="R_hKbZLRWmPk_zWUSFDA-5" target="R_hKbZLRWmPk_zWUSFDA-10" edge="1">
          <mxGeometry width="160" relative="1" as="geometry">
            <mxPoint x="649" y="142" as="sourcePoint" />
            <mxPoint x="603" y="212" as="targetPoint" />
          </mxGeometry>
        </mxCell>
        <mxCell id="R_hKbZLRWmPk_zWUSFDA-26" value="&amp;lt;&amp;lt; &lt;b&gt;interface&amp;nbsp;&lt;/b&gt;&amp;gt;&amp;gt;&lt;div&gt;&lt;br&gt;&lt;/div&gt;&lt;div&gt;&lt;b&gt;Check-in machine&lt;/b&gt;&lt;/div&gt;" style="shape=rect;html=1;whiteSpace=wrap;align=center;verticalAlign=top;fillColor=#FFFFFF;" parent="1" vertex="1">
          <mxGeometry x="417" y="108" width="126" height="68" as="geometry" />
        </mxCell>
        <mxCell id="R_hKbZLRWmPk_zWUSFDA-27" value="&lt;font style=&quot;font-size: 12px;&quot;&gt;&lt;b&gt;&amp;lt;&amp;lt; Allocate &amp;gt;&amp;gt;&lt;/b&gt;&lt;/font&gt;" style="edgeStyle=none;html=1;endArrow=open;endSize=12;dashed=1;verticalAlign=bottom;rounded=0;strokeWidth=2;" parent="1" source="R_hKbZLRWmPk_zWUSFDA-4" target="R_hKbZLRWmPk_zWUSFDA-26" edge="1">
          <mxGeometry x="0.0654" width="160" relative="1" as="geometry">
            <mxPoint x="480" y="-241" as="sourcePoint" />
            <mxPoint x="333.15" y="-158" as="targetPoint" />
            <mxPoint as="offset" />
          </mxGeometry>
        </mxCell>
      </root>
    </mxGraphModel>
  </diagram>
</mxfile>
